<svg xmlns="http://www.w3.org/2000/svg" width="24" height="24" viewBox="0 0 24 24"><g transform="translate(-814 -506)"><rect width="24" height="24" transform="translate(814 506)" fill="rgba(0,0,0,0)"/><path d="M826,525a11.828,11.828,0,0,1-11-7.5,11.819,11.819,0,0,1,22,0,11.826,11.826,0,0,1-11,7.5Zm0-13a9.753,9.753,0,0,0-8.82,5.5,9.822,9.822,0,0,0,17.64,0A9.755,9.755,0,0,0,826,512Zm0,10a4.5,4.5,0,1,1,4.5-4.5A4.505,4.505,0,0,1,826,522Zm0-7a2.5,2.5,0,1,0,2.5,2.5A2.5,2.5,0,0,0,826,515Z" fill="#1d1d1d"/></g></svg>