<svg xmlns="http://www.w3.org/2000/svg" width="24" height="24" viewBox="0 0 24 24"><g transform="translate(-780 -506)"><rect width="24" height="24" transform="translate(780 506)" fill="rgba(0,0,0,0)"/><path d="M799.74,527.6h0l-3.419-3.419a11.8,11.8,0,0,1-11.046-1.284A11.835,11.835,0,0,1,781,517.5a11.734,11.734,0,0,1,3.69-4.95l-2.68-2.68,1.41-1.42,17.73,17.74-1.41,1.41Zm-13.63-13.63h0a9.863,9.863,0,0,0-2.93,3.53A9.754,9.754,0,0,0,792,523a10.482,10.482,0,0,0,2.75-.38l-.979-.98a4.506,4.506,0,0,1-6.27-4.14,4.584,4.584,0,0,1,.36-1.78l-1.751-1.75Zm3.4,3.4h0a.5.5,0,0,1,0,.063.52.52,0,0,0-.005.067A2.5,2.5,0,0,0,792,520a.475.475,0,0,0,.114-.019h.006Zm10.31,4.66h0l-1.41-1.409a9.621,9.621,0,0,0,2.41-3.12A9.753,9.753,0,0,0,792,512a10.027,10.027,0,0,0-1.99.22l-1.651-1.65A11.873,11.873,0,0,1,792,510a11.827,11.827,0,0,1,11,7.5,11.875,11.875,0,0,1-3.179,4.529Zm-3.47-3.469h0l-2.069-2.069A2.485,2.485,0,0,0,793,515.21l-2.07-2.07A4.244,4.244,0,0,1,792,513a4.484,4.484,0,0,1,4.49,4.49,4.611,4.611,0,0,1-.14,1.068Z" fill="#1d1d1d"/></g></svg>